<svg viewBox="0 0 24 24" xmlns="http://www.w3.org/2000/svg">
<!-- Battle of the Bits on whole pixels: "Bo / tB" stacked two by two as in the small BotB
     favicon, in the chunky cream letters of the "battle of the bits" poster. The poster's
     red-orange-yellow stacked shadow is added by scripts/hd_icons.py (stack=..., cast downward
     as in the poster). Letters are 7 rows tall so that letters and shadows keep a free pixel
     inside the tile edge all round (rows 2-21, columns 2-21). -->
<rect x="2" y="2" width="1" height="1"/>
<rect x="3" y="2" width="1" height="1"/>
<rect x="4" y="2" width="1" height="1"/>
<rect x="5" y="2" width="1" height="1"/>
<rect x="6" y="2" width="1" height="1"/>
<rect x="7" y="2" width="1" height="1"/>
<rect x="8" y="2" width="1" height="1"/>
<rect x="2" y="3" width="1" height="1"/>
<rect x="3" y="3" width="1" height="1"/>
<rect x="8" y="3" width="1" height="1"/>
<rect x="9" y="3" width="1" height="1"/>
<rect x="2" y="4" width="1" height="1"/>
<rect x="3" y="4" width="1" height="1"/>
<rect x="4" y="4" width="1" height="1"/>
<rect x="5" y="4" width="1" height="1"/>
<rect x="6" y="4" width="1" height="1"/>
<rect x="7" y="4" width="1" height="1"/>
<rect x="8" y="4" width="1" height="1"/>
<rect x="2" y="5" width="1" height="1"/>
<rect x="3" y="5" width="1" height="1"/>
<rect x="9" y="5" width="1" height="1"/>
<rect x="10" y="5" width="1" height="1"/>
<rect x="2" y="6" width="1" height="1"/>
<rect x="3" y="6" width="1" height="1"/>
<rect x="9" y="6" width="1" height="1"/>
<rect x="10" y="6" width="1" height="1"/>
<rect x="2" y="7" width="1" height="1"/>
<rect x="3" y="7" width="1" height="1"/>
<rect x="9" y="7" width="1" height="1"/>
<rect x="10" y="7" width="1" height="1"/>
<rect x="2" y="8" width="1" height="1"/>
<rect x="3" y="8" width="1" height="1"/>
<rect x="4" y="8" width="1" height="1"/>
<rect x="5" y="8" width="1" height="1"/>
<rect x="6" y="8" width="1" height="1"/>
<rect x="7" y="8" width="1" height="1"/>
<rect x="8" y="8" width="1" height="1"/>
<rect x="9" y="8" width="1" height="1"/>
<rect x="14" y="4" width="1" height="1"/>
<rect x="15" y="4" width="1" height="1"/>
<rect x="16" y="4" width="1" height="1"/>
<rect x="17" y="4" width="1" height="1"/>
<rect x="18" y="4" width="1" height="1"/>
<rect x="19" y="4" width="1" height="1"/>
<rect x="13" y="5" width="1" height="1"/>
<rect x="14" y="5" width="1" height="1"/>
<rect x="19" y="5" width="1" height="1"/>
<rect x="20" y="5" width="1" height="1"/>
<rect x="13" y="6" width="1" height="1"/>
<rect x="14" y="6" width="1" height="1"/>
<rect x="19" y="6" width="1" height="1"/>
<rect x="20" y="6" width="1" height="1"/>
<rect x="13" y="7" width="1" height="1"/>
<rect x="14" y="7" width="1" height="1"/>
<rect x="19" y="7" width="1" height="1"/>
<rect x="20" y="7" width="1" height="1"/>
<rect x="14" y="8" width="1" height="1"/>
<rect x="15" y="8" width="1" height="1"/>
<rect x="16" y="8" width="1" height="1"/>
<rect x="17" y="8" width="1" height="1"/>
<rect x="18" y="8" width="1" height="1"/>
<rect x="19" y="8" width="1" height="1"/>
<rect x="4" y="12" width="1" height="1"/>
<rect x="5" y="12" width="1" height="1"/>
<rect x="3" y="13" width="1" height="1"/>
<rect x="4" y="13" width="1" height="1"/>
<rect x="5" y="13" width="1" height="1"/>
<rect x="6" y="13" width="1" height="1"/>
<rect x="7" y="13" width="1" height="1"/>
<rect x="8" y="13" width="1" height="1"/>
<rect x="4" y="14" width="1" height="1"/>
<rect x="5" y="14" width="1" height="1"/>
<rect x="4" y="15" width="1" height="1"/>
<rect x="5" y="15" width="1" height="1"/>
<rect x="4" y="16" width="1" height="1"/>
<rect x="5" y="16" width="1" height="1"/>
<rect x="4" y="17" width="1" height="1"/>
<rect x="5" y="17" width="1" height="1"/>
<rect x="8" y="17" width="1" height="1"/>
<rect x="9" y="17" width="1" height="1"/>
<rect x="5" y="18" width="1" height="1"/>
<rect x="6" y="18" width="1" height="1"/>
<rect x="7" y="18" width="1" height="1"/>
<rect x="8" y="18" width="1" height="1"/>
<rect x="13" y="12" width="1" height="1"/>
<rect x="14" y="12" width="1" height="1"/>
<rect x="15" y="12" width="1" height="1"/>
<rect x="16" y="12" width="1" height="1"/>
<rect x="17" y="12" width="1" height="1"/>
<rect x="18" y="12" width="1" height="1"/>
<rect x="19" y="12" width="1" height="1"/>
<rect x="13" y="13" width="1" height="1"/>
<rect x="14" y="13" width="1" height="1"/>
<rect x="19" y="13" width="1" height="1"/>
<rect x="20" y="13" width="1" height="1"/>
<rect x="13" y="14" width="1" height="1"/>
<rect x="14" y="14" width="1" height="1"/>
<rect x="15" y="14" width="1" height="1"/>
<rect x="16" y="14" width="1" height="1"/>
<rect x="17" y="14" width="1" height="1"/>
<rect x="18" y="14" width="1" height="1"/>
<rect x="19" y="14" width="1" height="1"/>
<rect x="13" y="15" width="1" height="1"/>
<rect x="14" y="15" width="1" height="1"/>
<rect x="20" y="15" width="1" height="1"/>
<rect x="21" y="15" width="1" height="1"/>
<rect x="13" y="16" width="1" height="1"/>
<rect x="14" y="16" width="1" height="1"/>
<rect x="20" y="16" width="1" height="1"/>
<rect x="21" y="16" width="1" height="1"/>
<rect x="13" y="17" width="1" height="1"/>
<rect x="14" y="17" width="1" height="1"/>
<rect x="20" y="17" width="1" height="1"/>
<rect x="21" y="17" width="1" height="1"/>
<rect x="13" y="18" width="1" height="1"/>
<rect x="14" y="18" width="1" height="1"/>
<rect x="15" y="18" width="1" height="1"/>
<rect x="16" y="18" width="1" height="1"/>
<rect x="17" y="18" width="1" height="1"/>
<rect x="18" y="18" width="1" height="1"/>
<rect x="19" y="18" width="1" height="1"/>
<rect x="20" y="18" width="1" height="1"/>
</svg>
